<?xml version="1.0" encoding="UTF-8"?><svg id="Layer_1" xmlns="http://www.w3.org/2000/svg" viewBox="0 0 162.71 88.84"><defs><style>.cls-1{fill:#fff129;}</style></defs><g id="UCC_logo"><polygon class="cls-1" points="162.71 27.96 150.74 27.96 150.74 0 0 0 0 27.96 0 30.66 0 58.17 0 62.23 0 88.84 94.83 88.84 94.83 62.23 162.71 62.23 162.71 27.96"/><g><path d="m17.28,27.77c-1.84,0-3.44-.37-4.82-1.12s-2.44-1.78-3.18-3.11c-.74-1.33-1.12-2.9-1.12-4.7v-10.77h5.18v10.52c0,.88.15,1.64.45,2.26.3.62.75,1.1,1.34,1.43.59.33,1.3.5,2.15.5s1.53-.17,2.12-.5c.59-.33,1.03-.81,1.32-1.43.29-.62.44-1.38.44-2.26v-10.52h5.18v10.77c0,1.8-.37,3.37-1.1,4.7-.73,1.33-1.8,2.37-3.18,3.11-1.39.74-2.98,1.12-4.78,1.12Z"/><path d="m30.94,8.07h5.15v9.37h1.21l6.09-9.37h5.62l-6.01,9.23,6.53,10.06h-6.17l-6.09-9.37h-1.18v9.37h-5.15V8.07Z"/><path d="m52.35,8.07h8.02c2.48,0,4.43.49,5.85,1.47,1.42.98,2.14,2.33,2.14,4.04,0,1.27-.36,2.34-1.09,3.21-.73.87-1.78,1.5-3.15,1.89l5.81,8.68h-5.73l-5.48-8.29s-.04.03-.11.03h-1.18v8.27h-5.07V8.07Zm7.44,10.47c1.01,0,1.83-.28,2.45-.83.62-.55.94-1.27.94-2.15s-.31-1.62-.94-2.16c-.62-.54-1.44-.81-2.45-.81h-2.37v5.95h2.37Z"/><path d="m78.11,8.07h6.69l7.08,19.29h-5.48l-1.87-5.37h-6.17l-1.96,5.37h-5.37l7.08-19.29Zm6.17,13.34l-2.84-7.88-2.92,7.88h5.76Z"/><path d="m94.86,8.07h5.18v19.29h-5.18V8.07Z"/><path d="m104.97,8.07h5.18l7.85,17.85V8.07h5.21v19.29h-5.18l-7.85-17.83v17.83h-5.21V8.07Z"/><path d="m128.12,8.07h13.94v4.52h-8.84v4.85h5.9v.55h-5.9v4.85h9.53v4.52h-14.63V8.07Z"/><path d="m17.25,54.83c-1.93,0-3.65-.43-5.15-1.29-1.51-.86-2.69-2.06-3.55-3.6-.86-1.53-1.29-3.26-1.29-5.17s.43-3.65,1.28-5.18c.85-1.52,2.04-2.72,3.55-3.58,1.52-.86,3.24-1.29,5.17-1.29,1.67,0,3.21.36,4.62,1.09,1.41.73,2.53,1.73,3.39,3,.85,1.28,1.34,2.71,1.45,4.31h-5.26c-.15-.68-.42-1.27-.83-1.78-.4-.5-.9-.89-1.49-1.16-.59-.27-1.23-.4-1.93-.4-.9,0-1.7.21-2.41.63-.71.42-1.26,1.02-1.65,1.78-.4.76-.59,1.62-.59,2.58s.2,1.81.59,2.56c.39.75.95,1.35,1.65,1.78.71.43,1.51.65,2.41.65.7,0,1.34-.13,1.93-.4.59-.27,1.08-.65,1.49-1.16.4-.51.68-1.1.83-1.78h5.26c-.11,1.6-.59,3.04-1.45,4.31-.85,1.28-1.98,2.28-3.39,3s-2.94,1.09-4.62,1.09Z"/><path d="m39.02,54.83c-1.93,0-3.66-.44-5.19-1.31-1.53-.87-2.74-2.08-3.62-3.61-.88-1.53-1.32-3.25-1.32-5.14s.44-3.6,1.32-5.14c.88-1.53,2.09-2.74,3.62-3.61,1.53-.87,3.26-1.31,5.19-1.31s3.64.44,5.19,1.31c1.55.87,2.76,2.08,3.64,3.61.87,1.53,1.31,3.25,1.31,5.14s-.44,3.61-1.31,5.14c-.87,1.53-2.09,2.74-3.64,3.61-1.55.87-3.28,1.31-5.19,1.31Zm0-5.07c.92,0,1.74-.22,2.48-.65.73-.43,1.32-1.03,1.75-1.79.43-.76.65-1.61.65-2.55s-.22-1.79-.65-2.55c-.43-.76-1.02-1.36-1.75-1.79-.73-.43-1.56-.65-2.48-.65s-1.75.22-2.48.65c-.73.43-1.31,1.03-1.74,1.79-.42.76-.63,1.61-.63,2.55s.21,1.79.63,2.55c.42.76,1,1.36,1.74,1.79.73.43,1.56.65,2.48.65Z"/><path d="m52.87,35.13h5.18l7.85,17.85v-17.85h5.21v19.29h-5.18l-7.85-17.83v17.83h-5.21v-19.29Z"/><path d="m81.06,40.14h-6.7v-5.01h18.6v5.01h-6.72v14.27h-5.18v-14.27Z"/><path d="m96.21,35.13h13.94v4.52h-8.84v4.85h5.9v.55h-5.9v4.85h9.53v4.52h-14.63v-19.29Z"/><path d="m114.78,35.13h5.18l7.85,17.85v-17.85h5.21v19.29h-5.18l-7.85-17.83v17.83h-5.21v-19.29Z"/><path d="m142.97,40.14h-6.7v-5.01h18.6v5.01h-6.72v14.27h-5.18v-14.27Z"/><path d="m17.25,81.89c-1.93,0-3.65-.43-5.15-1.29-1.51-.86-2.69-2.06-3.55-3.6-.86-1.53-1.29-3.26-1.29-5.17s.43-3.65,1.28-5.18c.85-1.52,2.04-2.72,3.55-3.58,1.52-.86,3.24-1.29,5.17-1.29,1.67,0,3.21.36,4.62,1.09,1.41.73,2.53,1.73,3.39,3,.85,1.28,1.34,2.71,1.45,4.31h-5.26c-.15-.68-.42-1.27-.83-1.78-.4-.5-.9-.89-1.49-1.16-.59-.27-1.23-.4-1.93-.4-.9,0-1.7.21-2.41.63-.71.42-1.26,1.02-1.65,1.78-.4.76-.59,1.62-.59,2.58s.2,1.81.59,2.56c.39.75.95,1.35,1.65,1.78s1.51.65,2.41.65c.7,0,1.34-.13,1.93-.4.59-.27,1.08-.65,1.49-1.16.4-.5.68-1.1.83-1.78h5.26c-.11,1.6-.59,3.04-1.45,4.31-.85,1.28-1.98,2.28-3.39,3s-2.94,1.09-4.62,1.09Z"/><path d="m30.09,62.19h5.18v14.27h9.37v5.01h-14.55v-19.29Z"/><path d="m56.18,81.89c-1.84,0-3.44-.37-4.82-1.12-1.38-.74-2.44-1.78-3.18-3.11-.74-1.33-1.12-2.9-1.12-4.7v-10.77h5.18v10.53c0,.88.15,1.64.45,2.26.3.62.75,1.1,1.34,1.43.59.33,1.3.5,2.15.5s1.53-.17,2.12-.5c.59-.33,1.03-.81,1.32-1.43.29-.62.44-1.38.44-2.26v-10.53h5.18v10.77c0,1.8-.37,3.37-1.1,4.7-.73,1.33-1.8,2.37-3.18,3.11-1.39.74-2.98,1.12-4.78,1.12Z"/><path d="m69.85,62.19h10.06c1.95,0,3.49.44,4.62,1.32,1.13.88,1.69,2.09,1.69,3.64,0,1.1-.3,2.04-.91,2.81-.61.77-1.46,1.33-2.56,1.68v.19c1.25.29,2.24.86,2.96,1.71.73.85,1.09,1.84,1.09,2.98,0,.99-.26,1.86-.77,2.62-.51.75-1.23,1.33-2.14,1.74-.91.4-1.98.61-3.21.61h-10.83v-19.29Zm8.62,9.37c.75,0,1.38-.22,1.87-.65.5-.43.74-.98.74-1.64s-.25-1.18-.74-1.6-1.12-.63-1.87-.63h-3.44v4.52h3.44Zm.33,5.07c.77,0,1.39-.22,1.86-.65.47-.43.7-.98.7-1.64,0-.62-.24-1.15-.72-1.58-.48-.43-1.09-.65-1.85-.65h-3.77v4.52h3.77Z"/></g></g></svg>